#Comment line ignore any data following # character 
#Hierarchical Translation and Rotation (.htr) file 
[Header]	
#Header keywords are followed by a single value 
FileType HTR		#Single word string
DataType HTRS		#Translation followed by rotation and scale data
FileVersion 1		#integer
NumSegments 84		#integer
NumFrames 2		#integer
DataFrameRate 30		#integer, data frame rate in this file
EulerRotationOrder ZYX
CalibrationUnits mm
RotationUnits Degrees
GlobalAxisofGravity Y
BoneLengthAxis Y
ScaleFactor 1.00
[SegmentNames&Hierarchy]
#CHILD	PARENT
MASTER GLOBAL
root MASTER
chest root
L_mid_tent01 root
R_mid_tent01 root
spine01 root
Bip01_Neck chest
L_humerus chest
R_humerus chest
weapon_bone chest
Bip01_Head Bip01_Neck
eye_left_bone Bip01_Head
eye_right_bone Bip01_Head
L_forearm L_humerus
L_front_hand L_forearm
L_weapon_bone L_forearm
L_front_hand01_01 L_front_hand
L_front_hand02_01 L_front_hand
L_front_hand03_01 L_front_hand
L_front_hand01_02 L_front_hand01_01
L_front_hand02_02 L_front_hand02_01
L_front_hand03_02 L_front_hand03_01
R_forearm R_humerus
R_front_hand R_forearm
R_weapon_bone R_forearm
R_front_hand01_01 R_front_hand
R_front_hand02_01 R_front_hand
R_front_hand03_01 R_front_hand
R_front_hand01_02 R_front_hand01_01
R_front_hand02_02 R_front_hand02_01
R_front_hand03_02 R_front_hand03_01
null_rope01_connect L_mid_tent01
Rope1_Seg01 null_rope01_connect
Rope1_Seg02 Rope1_Seg01
Rope1_Seg03 Rope1_Seg02
Rope1_Seg04 Rope1_Seg03
Rope1_Seg05 Rope1_Seg04
Rope1_Seg06 Rope1_Seg05
Rope1_Seg07 Rope1_Seg06
Rope1_Seg09 Rope1_Seg07
L_mid_hand01 Rope1_Seg09
L_mid_hand02 Rope1_Seg09
L_mid_hand03 Rope1_Seg09
null_rope02_connect R_mid_tent01
Rope2_Seg01 null_rope02_connect
Rope2_Seg02 Rope2_Seg01
Rope2_Seg03 Rope2_Seg02
Rope2_Seg04 Rope2_Seg03
Rope2_Seg05 Rope2_Seg04
Rope2_Seg06 Rope2_Seg05
Rope2_Seg07 Rope2_Seg06
Rope2_Seg09 Rope2_Seg07
R_mid_hand01 Rope2_Seg09
R_mid_hand02 Rope2_Seg09
R_mid_hand03 Rope2_Seg09
spine02 spine01
spine03 spine02
pelvis spine03
null_rope03_connect pelvis
null_rope04_connect pelvis
Rope3_Seg01 null_rope03_connect
Rope3_Seg02 Rope3_Seg01
Rope3_Seg03 Rope3_Seg02
Rope3_Seg04 Rope3_Seg03
Rope3_Seg05 Rope3_Seg04
Rope3_Seg06 Rope3_Seg05
Rope3_Seg07 Rope3_Seg06
Rope3_Seg08 Rope3_Seg07
Rope3_Seg09 Rope3_Seg08
R_rear_hand01 Rope3_Seg09
R_rear_hand02 Rope3_Seg09
R_rear_hand03 Rope3_Seg09
Rope4_Seg01 null_rope04_connect
Rope4_Seg02 Rope4_Seg01
Rope4_Seg03 Rope4_Seg02
Rope4_Seg04 Rope4_Seg03
Rope4_Seg05 Rope4_Seg04
Rope4_Seg06 Rope4_Seg05
Rope4_Seg07 Rope4_Seg06
Rope4_Seg08 Rope4_Seg07
Rope4_Seg09 Rope4_Seg08
L_rear_hand01 Rope4_Seg09
L_rear_hand02 Rope4_Seg09
L_rear_hand03 Rope4_Seg09
[BasePosition]
#SegmentName Tx, Ty, Tz, Rx, Ry, Rz, BoneLength
MASTER 0.000000 0.000000 0.000000 -90.000000 0.000000 0.000000 10.000000 
root 0.000000 0.000000 0.000000 0.000000 0.000000 0.000000 10.000000 
chest 0.000000 0.000000 0.000000 0.000000 0.000000 0.000000 10.000000 
L_mid_tent01 0.000000 0.000000 0.000000 0.000000 0.000000 0.000000 10.000000 
R_mid_tent01 0.000000 0.000000 0.000000 0.000000 0.000000 0.000000 10.000000 
spine01 0.000000 0.000000 0.000000 0.000000 0.000000 0.000000 10.000000 
Bip01_Neck 0.000000 0.000000 0.000000 0.000000 0.000000 0.000000 10.000000 
L_humerus 0.000000 0.000000 0.000000 0.000000 0.000000 0.000000 10.000000 
R_humerus 0.000000 0.000000 0.000000 0.000000 0.000000 0.000000 10.000000 
weapon_bone 0.000000 0.000000 0.000000 0.000000 0.000000 0.000000 10.000000 
Bip01_Head 0.000000 0.000000 0.000000 0.000000 0.000000 0.000000 10.000000 
eye_left_bone 0.000000 0.000000 0.000000 0.000000 0.000000 0.000000 10.000000 
eye_right_bone 0.000000 0.000000 0.000000 0.000000 0.000000 0.000000 10.000000 
L_forearm 0.000000 0.000000 0.000000 0.000000 0.000000 0.000000 10.000000 
L_front_hand 0.000000 0.000000 0.000000 0.000000 0.000000 0.000000 10.000000 
L_weapon_bone 0.000000 0.000000 0.000000 0.000000 0.000000 0.000000 10.000000 
L_front_hand01_01 0.000000 0.000000 0.000000 0.000000 0.000000 0.000000 10.000000 
L_front_hand02_01 0.000000 0.000000 0.000000 0.000000 0.000000 0.000000 10.000000 
L_front_hand03_01 0.000000 0.000000 0.000000 0.000000 0.000000 0.000000 10.000000 
L_front_hand01_02 0.000000 0.000000 0.000000 0.000000 0.000000 0.000000 10.000000 
L_front_hand02_02 0.000000 0.000000 0.000000 0.000000 0.000000 0.000000 10.000000 
L_front_hand03_02 0.000000 0.000000 0.000000 0.000000 0.000000 0.000000 10.000000 
R_forearm 0.000000 0.000000 0.000000 0.000000 0.000000 0.000000 10.000000 
R_front_hand 0.000000 0.000000 0.000000 0.000000 0.000000 0.000000 10.000000 
R_weapon_bone 0.000000 0.000000 0.000000 0.000000 0.000000 0.000000 10.000000 
R_front_hand01_01 0.000000 0.000000 0.000000 0.000000 0.000000 0.000000 10.000000 
R_front_hand02_01 0.000000 0.000000 0.000000 0.000000 0.000000 0.000000 10.000000 
R_front_hand03_01 0.000000 0.000000 0.000000 0.000000 0.000000 0.000000 10.000000 
R_front_hand01_02 0.000000 0.000000 0.000000 0.000000 0.000000 0.000000 10.000000 
R_front_hand02_02 0.000000 0.000000 0.000000 0.000000 0.000000 0.000000 10.000000 
R_front_hand03_02 0.000000 0.000000 0.000000 0.000000 0.000000 0.000000 10.000000 
null_rope01_connect 0.000000 0.000000 0.000000 0.000000 0.000000 0.000000 10.000000 
Rope1_Seg01 0.000000 0.000000 0.000000 0.000000 0.000000 0.000000 10.000000 
Rope1_Seg02 0.000000 0.000000 0.000000 0.000000 0.000000 0.000000 10.000000 
Rope1_Seg03 0.000000 0.000000 0.000000 0.000000 0.000000 0.000000 10.000000 
Rope1_Seg04 0.000000 0.000000 0.000000 0.000000 0.000000 0.000000 10.000000 
Rope1_Seg05 0.000000 0.000000 0.000000 0.000000 0.000000 0.000000 10.000000 
Rope1_Seg06 0.000000 0.000000 0.000000 0.000000 0.000000 0.000000 10.000000 
Rope1_Seg07 0.000000 0.000000 0.000000 0.000000 0.000000 0.000000 10.000000 
Rope1_Seg09 0.000000 0.000000 0.000000 0.000000 0.000000 0.000000 10.000000 
L_mid_hand01 0.000000 0.000000 0.000000 0.000000 0.000000 0.000000 10.000000 
L_mid_hand02 0.000000 0.000000 0.000000 0.000000 0.000000 0.000000 10.000000 
L_mid_hand03 0.000000 0.000000 0.000000 0.000000 0.000000 0.000000 10.000000 
null_rope02_connect 0.000000 0.000000 0.000000 0.000000 0.000000 0.000000 10.000000 
Rope2_Seg01 0.000000 0.000000 0.000000 0.000000 0.000000 0.000000 10.000000 
Rope2_Seg02 0.000000 0.000000 0.000000 0.000000 0.000000 0.000000 10.000000 
Rope2_Seg03 0.000000 0.000000 0.000000 0.000000 0.000000 0.000000 10.000000 
Rope2_Seg04 0.000000 0.000000 0.000000 0.000000 0.000000 0.000000 10.000000 
Rope2_Seg05 0.000000 0.000000 0.000000 0.000000 0.000000 0.000000 10.000000 
Rope2_Seg06 0.000000 0.000000 0.000000 0.000000 0.000000 0.000000 10.000000 
Rope2_Seg07 0.000000 0.000000 0.000000 0.000000 0.000000 0.000000 10.000000 
Rope2_Seg09 0.000000 0.000000 0.000000 0.000000 0.000000 0.000000 10.000000 
R_mid_hand01 0.000000 0.000000 0.000000 0.000000 0.000000 0.000000 10.000000 
R_mid_hand02 0.000000 0.000000 0.000000 0.000000 0.000000 0.000000 10.000000 
R_mid_hand03 0.000000 0.000000 0.000000 0.000000 0.000000 0.000000 10.000000 
spine02 0.000000 0.000000 0.000000 0.000000 0.000000 0.000000 10.000000 
spine03 0.000000 0.000000 0.000000 0.000000 0.000000 0.000000 10.000000 
pelvis 0.000000 0.000000 0.000000 0.000000 0.000000 0.000000 10.000000 
null_rope03_connect 0.000000 0.000000 0.000000 0.000000 0.000000 0.000000 10.000000 
null_rope04_connect 0.000000 0.000000 0.000000 0.000000 0.000000 0.000000 10.000000 
Rope3_Seg01 0.000000 0.000000 0.000000 0.000000 0.000000 0.000000 10.000000 
Rope3_Seg02 0.000000 0.000000 0.000000 0.000000 0.000000 0.000000 10.000000 
Rope3_Seg03 0.000000 0.000000 0.000000 0.000000 0.000000 0.000000 10.000000 
Rope3_Seg04 0.000000 0.000000 0.000000 0.000000 0.000000 0.000000 10.000000 
Rope3_Seg05 0.000000 0.000000 0.000000 0.000000 0.000000 0.000000 10.000000 
Rope3_Seg06 0.000000 0.000000 0.000000 0.000000 0.000000 0.000000 10.000000 
Rope3_Seg07 0.000000 0.000000 0.000000 0.000000 0.000000 0.000000 10.000000 
Rope3_Seg08 0.000000 0.000000 0.000000 0.000000 0.000000 0.000000 10.000000 
Rope3_Seg09 0.000000 0.000000 0.000000 0.000000 0.000000 0.000000 10.000000 
R_rear_hand01 0.000000 0.000000 0.000000 0.000000 0.000000 0.000000 10.000000 
R_rear_hand02 0.000000 0.000000 0.000000 0.000000 0.000000 0.000000 10.000000 
R_rear_hand03 0.000000 0.000000 0.000000 0.000000 0.000000 0.000000 10.000000 
Rope4_Seg01 0.000000 0.000000 0.000000 0.000000 0.000000 0.000000 10.000000 
Rope4_Seg02 0.000000 0.000000 0.000000 0.000000 0.000000 0.000000 10.000000 
Rope4_Seg03 0.000000 0.000000 0.000000 0.000000 0.000000 0.000000 10.000000 
Rope4_Seg04 0.000000 0.000000 0.000000 0.000000 0.000000 0.000000 10.000000 
Rope4_Seg05 0.000000 0.000000 0.000000 0.000000 0.000000 0.000000 10.000000 
Rope4_Seg06 0.000000 0.000000 0.000000 0.000000 0.000000 0.000000 10.000000 
Rope4_Seg07 0.000000 0.000000 0.000000 0.000000 0.000000 0.000000 10.000000 
Rope4_Seg08 0.000000 0.000000 0.000000 0.000000 0.000000 0.000000 10.000000 
Rope4_Seg09 0.000000 0.000000 0.000000 0.000000 0.000000 0.000000 10.000000 
L_rear_hand01 0.000000 0.000000 0.000000 0.000000 0.000000 0.000000 10.000000 
L_rear_hand02 0.000000 0.000000 0.000000 0.000000 0.000000 0.000000 10.000000 
L_rear_hand03 0.000000 0.000000 0.000000 0.000000 0.000000 0.000000 10.000000 
#Beginning of Data. Separated by tabs
#Fr	Tx	Ty	Tz	Rx	Ry	Rz	SF
[MASTER]
29 5113.528809 7140.595215 575.377197 0.001660 0.001660 0.001660 8801.552734
30 5287.727539 7389.610352 402.175659 0.001660 0.001660 0.001660 9095.500977
[root]
29 -20.253614 -62.583008 1501.310059 -95.386169 -27.600754 -90.434174 1502.750366
30 -18.726818 -62.717281 1501.031616 -94.005516 -27.633924 -90.328529 1502.458008
[chest]
29 -84.512650 -34.090519 0.000000 -11.427562 21.319262 160.515793 91.129311
30 -84.512650 -34.090519 0.000000 -11.608462 20.750525 160.579987 91.129311
[L_mid_tent01]
29 27.297878 22.179047 -249.919205 1.920966 35.584263 76.716141 252.382050
30 27.297836 22.179039 -249.919235 -1.191455 34.686619 70.506294 252.382065
[R_mid_tent01]
29 23.228794 24.509907 226.238495 162.571075 -46.593082 85.214165 228.744751
30 23.228794 24.509907 226.238495 165.904327 -46.077522 80.363914 228.744751
[spine01]
29 -0.361383 -0.195265 0.000000 0.002002 0.001225 27.059919 0.410763
30 -0.361383 -0.195265 0.000000 0.001997 0.001233 26.615673 0.410763
[Bip01_Neck]
29 165.484543 71.581718 0.000119 176.643677 -1.657967 43.431911 180.302734
30 165.484543 71.581718 0.000119 176.643677 -1.657967 43.431911 180.302734
[L_humerus]
29 -13.983130 -135.272980 -120.471481 -6.264010 66.616432 83.695473 181.680161
30 -13.983130 -135.272980 -120.471481 -6.170608 66.908386 83.801849 181.680161
[R_humerus]
29 -13.983309 -135.273102 125.287651 26.750124 -67.537308 68.930656 184.909012
30 -13.983309 -135.273102 125.287651 26.883429 -67.842880 68.792747 184.909012
[weapon_bone]
29 235.964890 -300.705902 0.000000 0.000000 -89.951546 -128.212341 382.234833
30 235.964890 -300.705902 0.000000 0.000000 -89.951546 -128.212341 382.234833
[Bip01_Head]
29 213.327713 186.042328 7.558517 5.200446 6.151311 -43.834991 283.156494
30 213.327805 186.042282 7.558574 5.200446 6.151311 -43.834991 283.156525
[eye_left_bone]
29 -24.626970 125.451866 -64.772606 0.000000 -90.000000 -99.840431 143.318359
30 -24.626970 125.451866 -64.772606 0.000000 -90.000000 -99.840431 143.318359
[eye_right_bone]
29 -24.626970 125.451866 64.327362 0.000000 -89.965736 80.156380 143.117676
30 -24.626970 125.451866 64.327362 0.000000 -89.965736 80.156380 143.117676
[L_forearm]
29 322.776093 0.000000 -0.000119 0.000411 -0.002311 -110.186462 322.776093
30 322.776093 0.000000 -0.000119 0.000409 -0.002311 -110.088272 322.776093
[L_front_hand]
29 241.149185 -0.042021 -3.300071 -178.667953 -1.835447 -27.422350 241.171753
30 241.149185 -0.042021 -3.300071 -178.667953 -1.835447 -27.422350 241.171753
[L_weapon_bone]
29 156.183838 0.000000 0.000000 0.000014 0.000007 0.000001 156.183838
30 156.183838 0.000000 0.000000 0.000014 0.000007 0.000001 156.183838
[L_front_hand01_01]
29 86.095154 20.947098 -0.655860 -0.358124 -0.483585 74.301987 88.609184
30 86.095154 20.947098 -0.655860 -0.360010 -0.482183 74.749405 88.609184
[L_front_hand02_01]
29 86.935165 -11.437475 24.513514 152.741348 -59.405788 -59.444721 91.046425
30 86.935165 -11.437475 24.513514 153.427795 -59.611073 -60.242870 91.046425
[L_front_hand03_01]
29 86.637497 -14.123976 -20.424902 -152.381119 57.628048 -60.890816 90.126129
30 86.637497 -14.123976 -20.424902 -153.017075 57.836395 -61.646004 90.126129
[L_front_hand01_02]
29 71.020905 -0.000179 0.000030 0.000325 -0.002325 -105.939087 71.020905
30 71.020905 -0.000179 0.000030 0.000327 -0.002324 -105.992577 71.020905
[L_front_hand02_02]
29 71.020927 -0.000119 0.000060 0.000325 -0.002325 -105.939087 71.020927
30 71.020927 -0.000119 0.000060 0.000327 -0.002324 -105.992577 71.020927
[L_front_hand03_02]
29 71.020905 -0.000060 0.000060 0.000325 -0.002325 -105.939087 71.020905
30 71.020905 -0.000060 0.000060 0.000327 -0.002324 -105.992577 71.020905
[R_forearm]
29 322.776428 -0.000060 0.000030 0.201656 0.066528 -108.840462 322.776428
30 322.776428 -0.000060 0.000030 0.201713 0.066354 -108.741913 322.776428
[R_front_hand]
29 238.847015 -0.006795 2.210259 -2.635298 -10.645461 -26.312506 238.857239
30 238.847015 -0.006795 2.210259 -2.635298 -10.645461 -26.312506 238.857239
[R_weapon_bone]
29 155.664093 0.002503 -0.000030 0.003487 0.001180 -90.988930 155.664078
30 155.664093 0.002503 -0.000030 0.003487 0.001180 -90.988930 155.664078
[R_front_hand01_01]
29 87.624611 14.231146 22.918642 -154.633484 -59.950607 61.746033 91.683487
30 87.624611 14.231146 22.918642 -154.633499 -59.950619 61.746044 91.683487
[R_front_hand02_01]
29 89.356956 14.367283 -19.491137 154.602661 58.302856 63.744389 92.579636
30 89.356956 14.367283 -19.491137 154.602661 58.302849 63.744389 92.579636
[R_front_hand03_01]
29 87.286232 -22.307278 -0.143439 0.162155 -0.423168 -75.767921 90.091743
30 87.286232 -22.307278 -0.143439 0.162155 -0.423168 -75.767921 90.091743
[R_front_hand01_02]
29 71.020905 0.000060 0.000119 0.002323 -0.000334 106.381714 71.020905
30 71.020905 0.000060 0.000119 0.002323 -0.000334 106.381714 71.020905
[R_front_hand02_02]
29 71.020844 -0.000030 -0.000119 0.002323 -0.000334 106.381714 71.020836
30 71.020844 -0.000030 -0.000119 0.002323 -0.000334 106.381714 71.020836
[R_front_hand03_02]
29 71.020905 0.000000 0.000030 0.002323 -0.000334 106.381714 71.020905
30 71.020905 0.000000 0.000030 0.002323 -0.000334 106.381714 71.020905
[null_rope01_connect]
29 328.732483 0.000000 -0.000238 -137.298050 -48.889874 179.182693 328.732483
30 328.732483 0.000000 -0.000238 -136.206329 -51.227100 -176.744339 328.732483
[Rope1_Seg01]
29 -0.000027 0.000011 0.000107 104.216827 -16.538879 -179.440430 0.000111
30 -0.000028 0.000010 0.000111 102.574356 -18.025408 -176.977478 0.000115
[Rope1_Seg02]
29 139.999863 -0.000179 0.000000 5.973870 -14.768799 -8.174050 139.999863
30 139.999863 -0.000179 0.000000 6.315085 -10.576185 -10.195095 139.999863
[Rope1_Seg03]
29 139.999924 0.000060 -0.000060 12.119122 -31.857471 -20.670956 139.999924
30 139.999924 0.000060 -0.000060 25.643616 -47.608788 -34.573444 139.999924
[Rope1_Seg04]
29 139.999924 -0.000060 -0.000119 -15.158517 -57.519749 4.114460 139.999924
30 139.999924 -0.000060 -0.000119 -14.023590 -45.828007 7.769350 139.999924
[Rope1_Seg05]
29 139.999832 0.000119 -0.000060 -2.909641 -4.913284 -0.804442 139.999832
30 139.999832 0.000119 -0.000060 -1.618263 -2.891602 -0.308791 139.999832
[Rope1_Seg06]
29 139.999954 0.000119 -0.000060 -1.472000 -2.186724 -0.544106 139.999954
30 139.999954 0.000119 -0.000060 -0.935228 -1.558078 -0.213154 139.999954
[Rope1_Seg07]
29 139.999985 0.000060 0.000000 -0.899512 -1.282131 -0.354295 139.999985
30 139.999985 0.000060 0.000000 -0.590627 -0.953642 -0.146751 139.999985
[Rope1_Seg09]
29 121.602913 0.000119 -0.000089 -89.793175 -1.359789 0.847147 121.602913
30 121.602913 0.000119 -0.000089 -89.793175 -1.359789 0.847147 121.602913
[L_mid_hand01]
29 103.859421 1.038730 8.195221 130.544373 -67.584534 -38.866947 104.187431
30 103.859421 1.038730 8.195221 130.544373 -67.584534 -38.866943 104.187431
[L_mid_hand02]
29 105.572853 -4.139662 -10.864139 -168.923172 43.409321 -73.498909 106.211075
30 105.572853 -4.139662 -10.864139 -168.923172 43.409309 -73.498886 106.211075
[L_mid_hand03]
29 104.641464 17.579376 -3.913581 -6.012628 17.808178 74.893669 106.179977
30 104.641464 17.579376 -3.913581 -6.012627 17.808174 74.893669 106.179977
[null_rope02_connect]
29 328.732849 0.000179 -0.000119 -121.988777 46.029972 19.116211 328.732849
30 328.732849 0.000179 -0.000119 -121.760941 46.035954 15.720543 328.732849
[Rope2_Seg01]
29 0.000065 0.000046 0.000000 -103.906151 50.313747 -9.575754 0.000079
30 0.000066 0.000042 0.000000 -99.166130 48.892845 -6.700618 0.000078
[Rope2_Seg02]
29 139.999741 -0.000060 -0.000119 11.734953 -31.952950 -4.909294 139.999756
30 139.999741 -0.000060 -0.000119 9.513736 -28.429182 -2.863827 139.999756
[Rope2_Seg03]
29 140.000107 0.000030 0.000000 4.713283 -18.097734 -8.318179 140.000107
30 140.000107 0.000030 0.000000 4.915449 -17.347542 -7.482463 140.000107
[Rope2_Seg04]
29 139.999802 0.000000 -0.000060 -1.079466 -12.531090 11.268257 139.999802
30 139.999802 0.000000 -0.000060 -1.252876 -11.714584 11.075163 139.999802
[Rope2_Seg05]
29 139.999985 -0.000060 0.000119 4.286714 -13.218227 25.863354 139.999985
30 139.999985 -0.000060 0.000119 3.012393 -11.281975 24.882805 139.999985
[Rope2_Seg06]
29 139.999893 -0.000030 -0.000119 6.903701 -5.580027 12.934125 139.999893
30 139.999893 -0.000030 -0.000119 5.106467 -5.162645 12.234469 139.999893
[Rope2_Seg07]
29 139.999893 0.000060 -0.000060 4.681338 -2.130017 6.299305 139.999893
30 139.999893 0.000060 -0.000060 3.645364 -2.243312 6.223783 139.999893
[Rope2_Seg09]
29 121.338966 0.000089 -0.000060 33.793236 -1.359788 -0.847141 121.338966
30 121.338966 0.000089 -0.000060 33.793236 -1.359788 -0.847141 121.338966
[R_mid_hand01]
29 104.680779 11.144459 -10.335981 -16.212063 45.237247 70.462852 105.778534
30 104.680779 11.144459 -10.335981 -16.212063 45.237247 70.462852 105.778534
[R_mid_hand02]
29 104.070427 2.443552 8.231699 49.067368 -67.749771 39.286453 104.424065
30 104.070427 2.443552 8.231699 49.067368 -67.749771 39.286453 104.424065
[R_mid_hand03]
29 106.028137 -11.221827 -5.996406 -177.101105 15.551026 -76.585571 106.788818
30 106.028137 -11.221827 -5.996406 -177.101105 15.551026 -76.585571 106.788818
[spine02]
29 129.756927 0.001550 0.000119 0.433622 -4.036919 -14.024939 129.756927
30 129.756927 0.001550 0.000119 0.423707 -4.038050 -13.883000 129.756927
[spine03]
29 78.613953 0.081680 -4.898778 1.941621 3.809325 17.165314 78.766479
30 78.613953 0.081676 -4.898771 1.935976 3.811943 17.076508 78.766479
[pelvis]
29 169.435242 0.051022 0.000000 -0.064294 -0.179254 15.486165 169.435257
30 169.435242 0.051022 0.000000 -0.063194 -0.179464 15.305607 169.435257
[null_rope03_connect]
29 -1.257226 -2.466202 137.391083 -144.039474 -85.546051 -144.039474 137.418976
30 -1.257226 -2.466202 137.391083 -142.016129 -86.961914 -145.446793 137.418976
[null_rope04_connect]
29 -1.259640 -2.480268 -137.844437 -144.039474 -85.546051 -144.039474 137.872513
30 -1.259640 -2.480268 -137.844437 -142.016129 -86.961914 -145.446793 137.872513
[Rope3_Seg01]
29 -0.000006 -0.000450 -0.000153 -158.834839 -49.284901 -48.101490 0.000475
30 -0.000005 -0.000463 -0.000153 -151.381180 -45.029823 -54.522926 0.000488
[Rope3_Seg02]
29 139.999924 -0.000119 0.000060 6.003453 -9.808370 1.539062 139.999924
30 139.999924 -0.000119 0.000060 4.890384 -9.382239 1.100147 139.999924
[Rope3_Seg03]
29 139.999924 -0.000119 0.000119 3.848254 -4.259960 4.048724 139.999924
30 139.999924 -0.000119 0.000119 2.685990 -3.456781 2.905371 139.999924
[Rope3_Seg04]
29 139.999924 0.000119 0.000000 2.633143 -3.389801 2.225256 139.999924
30 139.999924 0.000119 0.000000 2.578109 -4.353038 1.106663 139.999924
[Rope3_Seg05]
29 139.999924 -0.000238 0.000060 14.941271 -20.306776 -5.343704 139.999924
30 139.999924 -0.000238 0.000060 17.684029 -23.937004 -3.903516 139.999924
[Rope3_Seg06]
29 139.999893 -0.000119 -0.000060 55.458622 -41.151592 -1.618558 139.999893
30 139.999893 -0.000119 -0.000060 42.767277 -38.188126 6.184684 139.999893
[Rope3_Seg07]
29 139.999771 0.000060 -0.000119 20.201105 -12.768426 18.491936 139.999771
30 139.999771 0.000060 -0.000119 16.472685 -12.414731 17.309967 139.999771
[Rope3_Seg08]
29 139.999985 -0.000060 0.000000 5.812142 -2.181030 9.307185 139.999985
30 139.999985 -0.000060 0.000000 4.676674 -2.402448 7.359921 139.999985
[Rope3_Seg09]
29 90.185997 -0.000179 -0.000060 89.793228 -1.359877 -0.847183 90.185997
30 90.185997 -0.000179 -0.000060 89.793228 -1.359877 -0.847183 90.185997
[R_rear_hand01]
29 103.366196 -6.073594 -10.757982 -177.714203 24.565960 -73.910950 104.101845
30 103.366196 -6.073594 -10.757982 -177.714203 24.565960 -73.910950 104.101845
[R_rear_hand02]
29 100.509819 12.039542 -7.992327 -12.874829 36.868488 72.167213 101.543350
30 100.509819 12.039542 -7.992327 -12.874829 36.868488 72.167213 101.543350
[R_rear_hand03]
29 101.539970 5.215704 5.435467 71.484581 -71.816628 21.513813 101.819031
30 101.539970 5.215704 5.435467 71.484581 -71.816628 21.513813 101.819031
[Rope4_Seg01]
29 0.000000 -0.000866 -0.000259 55.004047 -20.768393 -118.538864 0.000904
30 0.000000 -0.000895 -0.000263 53.231766 -16.510376 -117.420586 0.000933
[Rope4_Seg02]
29 139.999985 0.000060 0.000119 0.073500 -12.227625 -7.268092 139.999985
30 139.999985 0.000060 0.000119 -0.143770 -9.845613 -6.328224 139.999985
[Rope4_Seg03]
29 139.999924 0.000000 -0.000238 3.466378 -22.751993 -10.023013 139.999924
30 139.999924 0.000000 -0.000238 2.806282 -21.328905 -9.350225 139.999924
[Rope4_Seg04]
29 139.999985 0.000000 0.000119 -20.579546 -21.724144 -13.446118 139.999985
30 139.999985 0.000000 0.000119 -38.445976 -22.396622 -20.284790 139.999985
[Rope4_Seg05]
29 139.999802 -0.000060 -0.000119 -109.759109 -2.350911 -62.309406 139.999802
30 139.999802 -0.000060 -0.000119 -91.720284 28.928160 -67.009315 139.999802
[Rope4_Seg06]
29 139.999924 0.000000 0.000060 1.111637 26.962597 8.698352 139.999924
30 139.999924 0.000000 0.000060 -0.128269 21.057240 3.253113 139.999924
[Rope4_Seg07]
29 139.999802 0.000000 0.000000 0.333759 7.876447 2.230836 139.999802
30 139.999802 0.000000 0.000000 0.331948 6.001104 0.915485 139.999802
[Rope4_Seg08]
29 139.999924 0.000000 0.000119 -1.374389 2.810818 0.779346 139.999924
30 139.999924 0.000000 0.000119 -1.390918 1.324647 0.193333 139.999924
[Rope4_Seg09]
29 90.185791 0.000060 0.000060 -135.617828 2.228885 0.850567 90.185791
30 90.185791 0.000060 0.000060 -135.617828 2.228885 0.850567 90.185791
[L_rear_hand01]
29 101.696655 -8.392275 -7.654577 -12.874829 -36.868488 107.832764 102.329041
30 101.696655 -8.392275 -7.654577 -12.874829 -36.868488 107.832764 102.329041
[L_rear_hand02]
29 102.726799 -1.568258 5.773216 71.484634 71.816666 158.486176 102.900848
30 102.726799 -1.568258 5.773216 71.484581 71.816628 158.486160 102.900848
[L_rear_hand03]
29 104.552910 9.721220 -10.420293 -177.714203 -24.565960 -106.089035 105.519653
30 104.552910 9.721220 -10.420293 -177.714203 -24.565960 -106.089035 105.519653
